<svg xmlns="http://www.w3.org/2000/svg" width="861" height="404" viewBox="0 0 861 404" role="img" aria-label="DailyCoding background 4">
  <defs>
    <linearGradient id="aurora" x1="0" y1="0" x2="1" y2="1">
      <stop offset="0" stop-color="#062a3f"/>
      <stop offset="0.42" stop-color="#0f5f6d"/>
      <stop offset="0.72" stop-color="#243b7a"/>
      <stop offset="1" stop-color="#102a43"/>
    </linearGradient>
    <radialGradient id="glowA" cx="24%" cy="18%" r="45%">
      <stop offset="0" stop-color="#54f0d1" stop-opacity="0.56"/>
      <stop offset="1" stop-color="#54f0d1" stop-opacity="0"/>
    </radialGradient>
    <radialGradient id="glowB" cx="78%" cy="28%" r="48%">
      <stop offset="0" stop-color="#77a7ff" stop-opacity="0.46"/>
      <stop offset="1" stop-color="#77a7ff" stop-opacity="0"/>
    </radialGradient>
    <pattern id="grid" width="44" height="44" patternUnits="userSpaceOnUse">
      <path d="M44 0H0v44" fill="none" stroke="#ffffff" stroke-opacity="0.08" stroke-width="1"/>
    </pattern>
  </defs>
  <rect width="861" height="404" fill="url(#aurora)"/>
  <rect width="861" height="404" fill="url(#glowA)"/>
  <rect width="861" height="404" fill="url(#glowB)"/>
  <rect width="861" height="404" fill="url(#grid)"/>
  <path d="M-40 318C98 252 187 279 303 216c115-63 174-153 322-135 110 13 192 76 275 41v326H-40Z" fill="#071827" fill-opacity="0.38"/>
  <path d="M65 326h731" stroke="#f9fafb" stroke-opacity="0.20" stroke-width="1.5" stroke-linecap="round"/>
  <circle cx="134" cy="112" r="5" fill="#c9fff3" fill-opacity="0.7"/>
  <circle cx="701" cy="91" r="4" fill="#dce8ff" fill-opacity="0.68"/>
  <circle cx="594" cy="274" r="3" fill="#ffffff" fill-opacity="0.46"/>
</svg>
